<svg fill="none" height="72" viewBox="0 0 271 72" width="271" xmlns="http://www.w3.org/2000/svg"><g fill="#fff"><path d="m270.315 56.8766c-.903.0139-1.803-.1163-2.666-.3858-.872-.2499-1.68-.6844-2.37-1.274-.69-.5897-1.245-1.3209-1.629-2.1441-1.271-2.6307-2.129-5.4307-3.172-8.1561-.809-2.1096-1.598-4.2281-2.393-6.3444-.781-2.0832-1.56-4.1672-2.337-6.2519-.79-2.1163-1.581-4.2326-2.375-6.3489-1.018-2.7344-1.994-5.4847-3.066-8.1966-.466-1.1823-.8-2.4254-1.406-3.5016h-6.196c-.033.2177-.008.4402.072.6452.342.8348.478 1.6628 0 2.5224-.225.4612-.408.9414-.548 1.435-1.297 3.7159-2.478 7.4702-3.803 11.1816-1.413 3.9844-2.659 8.0252-4.069 12.0141-1.127 3.1587-2.12 6.3625-3.193 9.5414-.122.3655-.167.8145-.626.9905-.57-.0136-.953-.3588-1.314-.7423-1.224-1.3399-2.359-2.7591-3.398-4.2484-1.982-2.7548-3.814-5.6021-5.529-8.5261-.309-.5279-.721-1.0153-.849-1.6086.849-.6477-.484.286.052.022 1.989-1.0266 4.902-3.6071 5.831-5.7008.651-1.4598.928-3.0008 1.088-4.5711.085-1.0395.009-2.086-.225-3.1022-.28-1.3244-.616-2.633-1.415-3.7768-1.176-1.7268-2.799-3.1016-4.694-3.9777-2.443-1.0987-5.069-1.7308-7.744-1.8636-2.494-.1444-4.991-.37-7.496-.2504-.3.0158-.599 0-.901 0-3.491 0-6.983 0-10.475 0-.356 0-.771-.1331-.983.2888v1.8523c.071.0992.165.1793.274.2333.108.0539.229.08.35.0758.807.0384 1.603.195 2.364.4648 1.242.4309 2.368 1.004 2.886 2.3802.212.5596.178 1.101.178 1.6493.009 10.1137.009 20.2274 0 30.3411 0 .3384 0 .6768-.018 1.0152-.032.2898-.091.576-.175.8551-.485 2.0306-2.046 2.7639-3.815 3.2286-.674.1385-1.356.238-2.041.2978v1.7035h20.145v-1.7711c-.822.0676-1.577-.088-2.348-.1918-1.169-.158-2.318-.3926-3.343-.986-1.465-.8483-2.382-2.0441-2.368-3.8513.031-3.761 0-7.5198 0-11.2809v-1.0649h5.353c.928 0 1.803-.2639 2.704-.4264.628.0925.881.6182 1.174 1.0672 1.446 2.2201 2.841 4.474 4.315 6.6738 1.928 2.8766 4.021 5.6224 6.567 7.9981 1.578 1.471 3.306 2.7074 5.316 3.5061 1.566.6368 3.23.9971 4.918 1.0649 1.803.0677 3.536-.3587 5.304-.5031.153-.0135.293-.2098.433-.3159-.072-.5775.076-1.1281-.117-1.7508-1.098.2708-2.111-.0812-3.137-.1962-.916-.1022-1.782-.47-2.492-1.0582-.265-.2042-.48-.4675-.626-.769-.146-.3016-.22-.6331-.216-.9683 0-1.0197.351-1.9312.676-2.8721.948-2.757 1.802-5.5479 2.755-8.3004.282-.8168.451-1.6944.901-2.4254h13.873c.676 1.8433 1.375 3.6459 2.028 5.4644.808 2.2652 1.599 4.5372 2.373 6.8159.45 1.3267-.084 2.6059-1.287 3.2918-.901.5008-1.901.7959-2.929.8641-.771.0609-1.507.3317-2.31.2256v1.7711h20.243c-.023-.6204.07-1.198-.079-1.7778zm-55.428-20.6982c-1.922 1.0244-4.068 1.5517-6.246 1.5342-1.309 0-2.618 0-3.999 0v-21.4337c2.028 0 4.013-.1308 5.98.0339 2.478.2053 4.702 1.128 6.5 2.9149 1.352 1.3357 2.082 3.0188 2.571 4.8079.471 1.7238.226 3.4926.226 5.2457-.717 2.9984-2.206 5.4035-5.041 6.8971zm24.639.5618c1.759-5.4013 3.51-10.7778 5.346-16.4182 1.149 2.933 2.102 5.6404 3.094 8.3298.991 2.6893 2.003 5.3742 3.008 8.0681-.987.0947-9.932.1128-11.448.0203z"/><path d="m194 36.5c0-2-.633-4.374-1.065-5.8969-.666-2.3324-1.751-4.5231-3.204-6.464-1.123-1.4815-2.458-2.7891-3.961-3.8806-1.839-1.343-3.856-2.4235-5.992-3.2106-1.741-.6527-3.538-1.1443-5.369-1.4687-1.16-.2098-2.33-.3385-3.494-.4941-1.578-.2121-3.173-.2595-4.755-.343-2.194-.1173-4.398.0632-6.597.1241-4.351.1196-8.708.0564-13.068.0722-.329 0-.692-.0835-.854.255v1.5003c.973.0222 1.937.1957 2.857.5144 1.44.4626 2.656 1.2815 3.073 2.906.111.5872.148 1.1861.108 1.7824.009 10.1498.009 20.3026 0 30.4584 0 .4128-.029.828-.018 1.2409-.002.5906-.157 1.1705-.45 1.6831-.559 1.0807-1.562 1.4349-2.58.8618-.465-.2379-.882-.5599-1.23-.9498-.777-.9388-1.396-1.9981-1.832-3.1361-.699-1.8433-1.406-3.6798-2.105-5.5209-.805-2.1133-1.605-4.2273-2.402-6.3421-.943-2.4908-1.889-4.9801-2.839-7.4679-1.07-2.7954-2.178-5.5751-3.224-8.3772-1.162-3.109-2.305-6.2248-3.555-9.3068-.106-.2639-.052-.6114-.397-.7445h-5.892c-.259.4129.047.7152.162.9769.275.6363.199 1.2048-.022 1.8163-1.309 3.5963-2.535 7.2197-3.781 10.8409-1.6 4.6567-3.195 9.3142-4.786 13.9725-1.063 3.1045-2.068 6.227-3.181 9.3135-.942 2.6059-2.717 4.3995-5.421 5.2366-.8.2482-1.636.3023-2.382.5189v1.6673h17.226v-1.744c-.708-.0266-1.413-.0982-2.112-.2144-.983-.1035-1.932-.4232-2.778-.9363-.422-.2355-.774-.5793-1.02-.9959-.246-.4167-.377-.8913-.379-1.3753-.038-1.0424.275-1.9787.572-2.9105 1.1-3.4316 2.278-6.8384 3.43-10.2611h14.041c0 .5415.325.9521.498 1.4304.751 2.0554 1.535 4.0995 2.301 6.1504.536 1.4327 1.095 2.8608 1.593 4.307s.211 2.5879-.859 3.4159c-.81.6444-1.787 1.0436-2.816 1.1506-.949.0903-1.886.3024-2.862.2369v1.805h1.143 37.177c.927.0076 1.854-.0558 2.771-.1895 1.947-.3059 3.843-.8791 5.633-1.7035 4.437-2.0181 8.276-5.1521 11.144-9.0969 2.305-3.1776 3.552-7.0014 3.565-10.9289 0-.5302-.012.2452-.012-.2782zm-72.2.2489c1.827-5.3765 3.625-10.665 5.408-15.9489.048-.005.096-.005.144 0 .034 0 .081.0225.088.0451 1.972 5.2885 3.945 10.589 5.919 15.9015zm64.957 3.7723c-.183 2.9783-1.131 5.8587-2.754 8.3614-1.528 2.3793-3.677 4.2948-6.214 5.5389-1.552.8153-3.197 1.4396-4.898 1.8591-1.246.3178-2.519.5135-3.802.5844-1.725.0473-3.451.0428-5.182 0-1.248-.0299-2.484-.2583-3.661-.6769-1.697-.6047-2.564-1.8862-2.729-3.6618-.018-.1872 0-.3768 0-.564v-34.8918c.093-.1261.219-.2239.365-.2825.145-.0586.303-.0756.458-.0492 3.188 0 6.381-.0812 9.567.0204 1.467.0527 2.926.2538 4.353.6001 1.602.346 3.162.8626 4.655 1.541 4.443 2.1321 7.277 5.6404 8.767 10.2949.435 1.4762.751 2.9853.944 4.5124.338 2.2652.27 4.5484.133 6.8136z"/><path d="m98.9759 31.5305c-.3386-2.131-.9277-4.2144-1.7552-6.2068-1.54-3.6123-3.7434-6.9032-6.4959-9.7015-.9222-.9806-1.905-1.9022-2.9426-2.7593-.9531-.7559-1.8904-1.5455-2.8886-2.2517-2.8761-2.03634-5.949-3.77856-9.1726-5.2005-1.9062-.84155-3.8506-1.55676-5.8176-2.2291-2.1818-.71715-4.4007-1.31591-6.6469-1.79366-1.1334-.28844-2.2841-.503965-3.4451-.645265-.9215-.085735-1.834-.241411-2.7578-.320378-1.4668-.121833-2.9291-.3970867-4.405-.3903182-.9756 0-1.9534 0-3.1296 0-2.0031-.1015279-4.1999.0564045-6.3945.2256182-.0743 0-.1509 0-.2253 0-1.3744.225617-2.7511.426417-4.1278.647522-1.0116.162441-2.0436.263971-3.0327.521181-2.9607.7671-5.9281 1.50938-8.7874 2.61942-3.3888 1.28313-6.6555 2.86884-9.7606 4.73797-2.2147 1.34031-4.3036 2.87851-6.2413 4.59581-1.85464 1.6317-3.54095 3.4457-5.03356 5.4148-1.77098 2.3713-3.26032 4.8869-4.24045 7.6846-1.065745 3.0391-1.779998 6.1503-1.6628336 9.406.0202785.5618 0 1.1281 0 1.6899.0092024 1.3697.1839666 2.7334.5204796 4.0611.687214 2.933 1.680864 5.7374 3.235544 8.3478 1.20792 2.0365 2.61478 3.9478 4.19989 5.7059 1.76831 1.9212 3.71813 3.6666 5.82213 5.2118 3.2958 2.4697 6.8903 4.5119 10.698 6.0781 3.3253 1.4076 6.7729 2.5057 10.2992 3.2805 1.9355.4084 3.862.8212 5.8222 1.1033.7368.106 1.4803.1038 2.2013.2256 1.3453.2257 2.7055.3509 4.0693.3745 3.3145.106 6.6323-.0184 9.9296-.3723 1.7936-.212 3.5773-.4738 5.3513-.7851 2.19-.3955 4.3523-.9321 6.4733-1.6064 3.7313-1.1574 7.3724-2.5653 10.8152-4.4514 2.6543-1.4412 5.1764-3.1143 7.5368-4.9997 2.0812-1.6352 3.9776-3.4933 5.6555-5.5412 2.0076-2.4506 3.6264-5.1962 4.7992-8.1403 1.0456-2.6605 1.6823-5.4645 1.8881-8.3163.124-2.0801.0053-4.1676-.3537-6.2202zm-86.8075 22.0293c-5.40762-5.7059-8.39081-12.1721-7.57292-20.08 3.56 2.2562 4.53562 2.6758 7.57292 3.646zm-6.07005-25.919c.77769-1.8123 1.7039-3.557 2.76913-5.2163 1.51192-2.3306 3.42932-4.3273 5.49992-6.1503 3.4496-3.0368 7.4355-5.2569 11.6038-7.1205 2.6655-1.189 5.4572-2.03056 8.2736-2.76381 1.0977-.32436 2.2219-.55086 3.3595-.67686-6.435 6.63997-9.1523 14.87047-10.3781 23.76657-7.4286 4.1469-14.4743 3.7701-21.12785-1.8388zm22.84255 36.2681c-3.1139-1.1281-7.2552-3.1068-8.1587-3.9732v-22.282c1.0162-.2617 2.0752-.3497 3.0598-.7129l3.0282-1.1281c-.1442 1.6019.1938 3.0233.2254 4.474.0491 1.1037.1733 2.2027.3717 3.2895.142.9025.32 1.8049.4507 2.7074.3199 2.184.9778 4.2867 1.6403 6.3602.797 2.4752 1.8504 4.8602 3.1431 7.1159 1.3384 2.3623 2.8908 4.5733 5.0786 6.6039-3.0096-.5696-5.9664-1.3907-8.8391-2.4547zm14.3008 1.2747c-.6602-.1782-1.1131-.6475-1.5614-1.0424-1.7761-1.5335-3.3059-3.3317-4.5357-5.3313-1.6794-2.7904-2.9833-5.7907-3.8776-8.9232-.4275-1.4738-.7721-2.9705-1.032-4.483-.3685-2.1108-.6145-4.2412-.7368-6.3805-.0541-.9972-.0991-1.9989-.1509-2.9984-.0258-.1013-.0278-.2071-.006-.3093.0219-.1022.0671-.1979.1321-.2796 1.8847.7293 3.8126 1.3411 5.7726 1.832 1.9828.5077 4.0152.7243 6.0047 1.1687zm-11.4303-35.6025c-.1284-.9227.1059-1.7395.2569-2.5043.4569-2.4759 1.1155-4.9102 1.9692-7.2785 1.2213-3.2443 2.7511-6.3173 4.9187-9.0427 1.1614-1.50272 2.5504-2.81436 4.1165-3.8874 2.3771-1.59287 4.9818-2.38704 7.8388-2.0802 1.9872.21208 3.792 1.00174 5.4594 2.12983 2.2261 1.50036 3.9317 3.49027 5.3805 5.71487 2.2254 3.4466 3.8371 7.2535 4.7632 11.2516.3695 1.5793.8134 3.1225.9013 4.738.0157.282.3222.5166.0878.943-11.811 5.3577-23.7085 5.363-35.6923.0158zm26.3868 34.1021c-.6241.5528-1.3204 1.0198-2.0594 1.5794v-26.8237c4.0219-.5866 7.9491-1.5139 11.766-3.0368.0826.1021.1379.2236.1608.3531.0228.1294.0125.2626-.0301.3869-.2862.9521-.1622 1.9223-.1803 2.8834-.0497 1.4021-.1912 2.7994-.4236 4.1829-.1487.9815-.3019 1.9584-.4709 2.9331-.2908 1.5804-.6806 3.141-1.1671 4.6725-.6255 2.0995-1.4557 4.1323-2.4785 6.0691-1.3541 2.5292-2.9561 4.8847-5.1169 6.8001zm20.2041-3.5196c-.133.2572-.4822.3497-.7661.5009-3.404 1.8431-6.991 3.3251-10.7025 4.4221-1.4713.4219-2.9291.9025-4.4725 1.0604-.2434.0677-.311-.0406-.2614-.264 1.3446-1.5258 2.5773-3.147 3.6884-4.8508 1.3519-2.114 2.3726-4.3769 3.3032-6.6895.7887-2.0754 1.439-4.2009 1.9467-6.3624.2523-.9928.3132-2.0306.5453-3.0324.3312-1.4394.3695-2.9127.6038-4.3634.1622-.9905.0563-2.0306.0653-3.0391 0-.5211 0-1.0423 0-1.489.0431-.0796.1156-.1391.202-.1657.0863-.0266.1797-.0182.2599.0235 1.3519.6408 2.8007 1.0379 4.2382 1.4575.4394.1286.9013 0 1.3519.2256zm-6.1917-30.6321c-.4506-.8348-.3245-1.7892-.5092-2.6781-.2997-1.4349-.5521-2.8698-.9171-4.2912-.6043-2.3285-1.3838-4.6077-2.332-6.8182-.8789-2.0664-1.9756-4.0329-3.2716-5.86606-1.0237-1.46599-2.1271-2.87447-3.3054-4.21906 1.5164.37453 3.0373.74003 4.5514 1.12809 2.2188.58295 4.3934 1.32334 6.5072 2.21557 1.6547.684 3.2711 1.45746 4.842 2.31706 2.4076 1.2865 4.6732 2.8231 6.7595 4.5846 1.0798.9225 2.1102 1.9016 3.0868 2.933 2.2194 2.3711 4.0293 5.0954 5.3558 8.0613.0756.2084.1153.4281.1171.6498-4.2855 4.4289-12.3202 6.9107-20.8845 1.9832zm14.8145 23.9267v-16.2151c1.3136-.5437 2.7196-.9205 4.0174-1.5771 1.2918-.6873 2.5477-1.4404 3.7628-2.2561.8449 8.4787-3.1364 15.9489-7.7802 20.0483z"/><path d="m87.0926 22.9957c-.5566-2.2133-3.1162-4.2394-5.7005-4.0386-.7946.0369-1.567.2736-2.2459.6885-.679.4148-1.2425.9944-1.6386 1.685-.7954 1.2951-1.068 3.4926-.5408 5.0967.2884.8777.6399 1.708 1.2798 2.4119.9572 1.0412 2.2656 1.6906 3.6727 1.823.6793.09 1.3701.026 2.0214-.1872s1.2464-.5702 1.7414-1.0447c1.282-1.1867 1.7574-2.6848 1.7349-4.3792.0271-.3372.0271-.6759 0-1.0131-.0698-.3542-.2366-.6903-.3244-1.0423z"/><path d="m22.5285 23.0669c0-.2256-.1577-.4061-.2253-.6159-.676-2.184-2.4154-3.5941-4.7745-3.4971-.696.0385-1.381.1909-2.0278.4513-1.4984.5618-2.4785 1.6357-3.1139 3.0842-.4844 1.0965-.4934 2.2313-.4326 3.3842.0992 1.8862 1.0432 3.2692 2.6452 4.21 1.2866.7559 2.6588.7604 4.0399.3069 1.1732-.3467 2.188-1.0939 2.8683-2.1118.7538-1.1008 1.1121-2.4253 1.0162-3.7565.0068-.4806.009-.9679.0045-1.4553z"/><path d="m49.6291 15.8257c-4.121.0136-7.5368 3.6099-7.476 7.6936-.0007 1.0526.2103 2.0946.6207 3.0637s1.0116 1.8455 1.7677 2.5767c1.4375 1.4485 3.24 1.9764 5.1642 2.1953 4.3667-.4309 7.3859-3.1293 7.4693-7.8786.0155-1.001-.1683-1.9951-.5408-2.9242-.3725-.929-.9263-1.7744-1.6288-2.4867-.7026-.7124-1.5399-1.2773-2.463-1.6619-.9231-.3845-1.9135-.581-2.9133-.5779z"/></g></svg>